<?xml version="1.0" encoding="UTF-8" standalone="no"?>
<!DOCTYPE svg PUBLIC "-//W3C//DTD SVG 1.1//EN" "http://www.w3.org/Graphics/SVG/1.1/DTD/svg11.dtd">
<svg width="100%" height="100%" viewBox="0 0 1000 1000" version="1.1" xmlns="http://www.w3.org/2000/svg" xmlns:xlink="http://www.w3.org/1999/xlink" xml:space="preserve" xmlns:serif="http://www.serif.com/" style="fill-rule:evenodd;clip-rule:evenodd;stroke-linejoin:round;stroke-miterlimit:2;">
    <g transform="matrix(1,0,0,1,-2330.933382,-8.587627)">
        <g id="favicon" transform="matrix(1,0,0,1,2330.933382,8.587627)">
            <rect x="0" y="0" width="1000" height="1000" style="fill:none;"/>
            <clipPath id="_clip1">
                <rect x="0" y="0" width="1000" height="1000"/>
            </clipPath>
            <g clip-path="url(#_clip1)">
                <g transform="matrix(1.383456,0,0,1.223436,-2131.726788,-239.172622)">
                    <path d="M2263.699,399.835L2263.699,808.52C2263.699,921.3 2182.727,1012.863 2082.992,1012.863L1721.578,1012.863C1621.843,1012.863 1540.871,921.3 1540.871,808.52L1540.871,399.835C1540.871,287.055 1621.843,195.493 1721.578,195.493L2082.992,195.493C2182.727,195.493 2263.699,287.055 2263.699,399.835Z"/>
                </g>
                <g transform="matrix(0.609491,0,0,0.609491,195.254502,203.89733)">
                    <path d="M878.43,9.621C885.887,7.361 893.973,8.766 900.231,13.408C906.489,18.051 910.178,25.382 910.178,33.174C910.178,177.105 910.178,748.767 910.178,938.466C910.178,948.277 904.35,957.151 895.346,961.05C886.342,964.948 875.883,963.126 868.728,956.412C634.421,734.426 394.668,918.3 198.659,716.783C128.92,644.821 89.923,548.545 89.923,448.335C89.822,338.84 89.822,173.018 89.822,118.258C89.822,107.415 96.918,97.85 107.295,94.705C160.277,78.65 319.668,30.35 388.074,9.621C395.53,7.361 403.617,8.766 409.874,13.408C416.132,18.051 419.822,25.382 419.822,33.174C419.822,118.459 419.822,347.237 419.822,469.825C419.822,491.089 428.269,511.482 443.304,526.517C458.34,541.553 478.733,550 499.997,550C499.999,550 500.001,550 500.003,550C521.267,550 541.66,541.553 556.696,526.517C571.731,511.482 580.178,491.089 580.178,469.825C580.178,361.923 580.178,176.745 580.178,118.258C580.178,107.415 587.275,97.85 597.652,94.705C650.634,78.65 810.025,30.35 878.43,9.621Z" style="fill:white;"/>
                </g>
            </g>
        </g>
    </g>
</svg>
